HIERARCHY
ROOT SpineBase
{
  OFFSET 0.000000 0.000000 0.000000
  CHANNELS 6 Xposition Yposition Zposition Zrotation Xrotation Yrotation
  JOINT SpineMid
  {
    OFFSET 0.000000 29.832629 0.000000
    CHANNELS 3 Zrotation Xrotation Yrotation
    JOINT SpineShoulder
    {
      OFFSET 0.024696 22.207662 -0.609895
      CHANNELS 3 Zrotation Xrotation Yrotation
      JOINT Neck
      {
        OFFSET 0.023874 7.368500 -0.492286
        CHANNELS 3 Zrotation Xrotation Yrotation
        JOINT Head
        {
          OFFSET -4.978477 13.317455 -0.126044
          CHANNELS 3 Zrotation Xrotation Yrotation
          End Site
          {
            OFFSET 0 0 0
          }
        }
      }
      JOINT ShoulderLeft
      {
        OFFSET -15.414161 -4.540246 7.223979
        CHANNELS 3 Zrotation Xrotation Yrotation
        JOINT ElbowLeft
        {
          OFFSET -0.871690 -25.586978 2.484343
          CHANNELS 3 Zrotation Xrotation Yrotation
          JOINT WristLeft
          {
            OFFSET 0.228820 -17.865958 -3.524735
            CHANNELS 3 Zrotation Xrotation Yrotation
            JOINT HandLeft
            {
              OFFSET 0.519917 -4.010807 -2.303420
              CHANNELS 3 Zrotation Xrotation Yrotation
              JOINT HandTipLeft
              {
                OFFSET -0.266080 -6.354043 0.368199
                CHANNELS 3 Zrotation Xrotation Yrotation
                End Site
                {
                  OFFSET 0 0 0
                }
              }
              JOINT ThumbLeft
              {
                OFFSET 4.096742 1.625655 -6.933197
                CHANNELS 3 Zrotation Xrotation Yrotation
                End Site
                {
                  OFFSET 0 0 0
                }
              }
            }
          }
        }
      }
      JOINT ShoulderRight
      {
        OFFSET 13.395570 -2.495972 -8.849065
        CHANNELS 3 Zrotation Xrotation Yrotation
        JOINT ElbowRight
        {
          OFFSET 6.403002 -24.653266 -0.873489
          CHANNELS 3 Zrotation Xrotation Yrotation
          JOINT WristRight
          {
            OFFSET -0.379798 -18.901059 -3.459095
            CHANNELS 3 Zrotation Xrotation Yrotation
            JOINT HandRight
            {
              OFFSET -2.084931 -6.085406 -0.811065
              CHANNELS 3 Zrotation Xrotation Yrotation
              JOINT HandTipRight
              {
                OFFSET -0.392475 -5.200751 -0.178057
                CHANNELS 3 Zrotation Xrotation Yrotation
                End Site
                {
                  OFFSET 0 0 0
                }
              }
              JOINT ThumbRight
              {
                OFFSET -3.257546 0.654428 -1.597122
                CHANNELS 3 Zrotation Xrotation Yrotation
                End Site
                {
                  OFFSET 0 0 0
                }
              }
            }
          }
        }
      }
    }
  }
  JOINT HipLeft
  {
    OFFSET -6.146291 0.355586 -0.610105
    CHANNELS 3 Zrotation Xrotation Yrotation
    JOINT KneeLeft
    {
      OFFSET 5.710054 -29.623457 3.514831
      CHANNELS 3 Zrotation Xrotation Yrotation
      JOINT AnkleLeft
      {
        OFFSET 5.697782 -31.017489 1.612173
        CHANNELS 3 Zrotation Xrotation Yrotation
        JOINT FootLeft
        {
          OFFSET 4.866982 -6.192457 -6.005734
          CHANNELS 3 Zrotation Xrotation Yrotation
          End Site
          {
            OFFSET 0 0 0
          }
        }
      }
    }
  }
  JOINT HipRight
  {
    OFFSET 6.702063 1.586098 -5.859752
    CHANNELS 3 Zrotation Xrotation Yrotation
    JOINT KneeRight
    {
      OFFSET 7.110093 -27.742591 1.565067
      CHANNELS 3 Zrotation Xrotation Yrotation
      JOINT AnkleRight
      {
        OFFSET 2.091313 -33.990965 5.335243
        CHANNELS 3 Zrotation Xrotation Yrotation
        JOINT FootRight
        {
          OFFSET -2.578313 -7.431776 -4.610266
          CHANNELS 3 Zrotation Xrotation Yrotation
          End Site
          {
            OFFSET 0 0 0
          }
        }
      }
    }
  }
}
MOTION
Frames: 14
Frame Time: 0.033333
-29.250179 67.798039 341.406938 -0.000000 0.000000 22.224197 0.000000 0.000000 -22.224197 -0.000000 0.000000 0.000000 -0.000000 0.000000 0.000000 0.000000 0.000000 0.000000 -0.000000 0.000000 0.000000 -0.000000 0.000000 0.000000 -0.000000 0.000000 0.000000 -0.000000 0.000000 0.000000 0.000000 0.000000 0.000000 0.000000 0.000000 0.000000 -0.000000 0.000000 0.000000 -0.000000 0.000000 0.000000 -0.000000 0.000000 0.000000 -0.000000 0.000000 0.000000 0.000000 0.000000 0.000000 0.000000 0.000000 0.000000 0.000000 0.000000 -22.224197 -0.000000 0.000000 0.000000 -0.000000 0.000000 0.000000 0.000000 0.000000 0.000000 0.000000 0.000000 -22.224197 -0.000000 0.000000 0.000000 -0.000000 0.000000 0.000000 0.000000 0.000000 0.000000
-29.340420 67.775953 341.322909 -0.067489 0.118719 22.296792 0.017401 -0.135448 -22.296701 -0.000000 0.000000 0.000000 -0.000000 0.000000 0.000000 0.000000 0.000000 0.000000 -0.000000 0.000000 0.000000 0.529556 1.198645 -0.094462 -0.561997 -5.200104 -0.424499 3.012604 8.139200 0.189791 0.000000 0.000000 0.000000 0.000000 0.000000 0.000000 1.166505 -1.418531 -0.394462 1.928660 -0.373562 -0.136378 -3.083899 -1.280151 1.631376 0.864907 1.315027 -0.982212 0.000000 0.000000 0.000000 0.000000 0.000000 0.000000 0.017401 -0.135448 -22.296701 -0.000000 0.000000 0.000000 -1.052386 -0.011984 1.018582 0.000000 0.000000 0.000000 0.017401 -0.135448 -22.296701 -0.000000 0.000000 0.000000 -0.670289 -1.093748 0.791954 0.000000 0.000000 0.000000
-29.438579 67.755277 341.277190 -0.133142 0.190155 22.412861 0.050584 -0.226555 -22.412540 -0.000000 0.000000 0.000000 -0.000000 0.000000 0.000000 0.000000 0.000000 0.000000 -0.000000 0.000000 0.000000 0.907473 2.097102 -0.168161 -0.885433 -9.838221 -0.907365 5.462926 15.594795 -0.087706 0.000000 0.000000 0.000000 0.000000 0.000000 0.000000 1.888295 -2.257975 -0.614011 3.244927 -0.707996 -0.263704 -5.042139 -2.400271 2.844765 1.568354 2.470500 -1.774515 0.000000 0.000000 0.000000 0.000000 0.000000 0.000000 0.050584 -0.226555 -22.412540 -0.000000 0.000000 0.000000 -1.981232 -0.070834 1.891455 0.000000 0.000000 0.000000 0.050584 -0.226555 -22.412540 -0.000000 0.000000 0.000000 -1.177580 -1.855025 1.363859 0.000000 0.000000 0.000000
-29.544655 67.736011 341.269780 -0.196991 0.214384 22.571663 0.099614 -0.273574 -22.571056 -0.000000 0.000000 0.000000 -0.000000 0.000000 0.000000 0.000000 0.000000 0.000000 -0.000000 0.000000 0.000000 1.167157 2.768088 -0.221928 -0.996043 -13.924078 -1.423497 7.201733 22.063505 -0.564287 0.000000 0.000000 0.000000 0.000000 0.000000 0.000000 2.200309 -2.548621 -0.688162 3.922138 -0.971637 -0.351930 -5.940744 -3.245863 3.543568 2.163391 3.214116 -2.300995 0.000000 0.000000 0.000000 0.000000 0.000000 0.000000 0.099614 -0.273574 -22.571056 -0.000000 0.000000 0.000000 -2.785690 -0.170198 2.617667 0.000000 0.000000 0.000000 0.099614 -0.273574 -22.571056 -0.000000 0.000000 0.000000 -1.525248 -2.267836 1.715948 0.000000 0.000000 0.000000
-29.658650 67.718155 341.300681 -0.259065 0.191440 22.772317 0.164772 -0.276793 -22.771487 -0.000000 0.000000 0.000000 -0.000000 0.000000 0.000000 0.000000 0.000000 0.000000 -0.000000 0.000000 0.000000 1.329478 3.258331 -0.256894 -0.901640 -17.454386 -1.954463 8.024007 27.332439 -0.921240 0.000000 0.000000 0.000000 0.000000 0.000000 0.000000 2.117264 -2.303324 -0.628188 3.954897 -1.153212 -0.393188 -5.832455 -3.737574 3.674948 2.677832 3.392442 -2.505062 0.000000 0.000000 0.000000 0.000000 0.000000 0.000000 0.164772 -0.276793 -22.771487 -0.000000 0.000000 0.000000 -3.465749 -0.304692 3.197033 0.000000 0.000000 0.000000 0.164772 -0.276793 -22.771487 -0.000000 0.000000 0.000000 -1.715264 -2.323223 1.848957 0.000000 0.000000 0.000000
-29.780562 67.701708 341.369893 -0.319392 0.121314 23.013812 0.246546 -0.236524 -23.012965 -0.000000 0.000000 0.000000 -0.000000 0.000000 0.000000 0.000000 0.000000 0.000000 -0.000000 0.000000 0.000000 1.407045 3.597783 -0.273965 -0.598426 -20.420463 -2.486698 7.707734 31.264033 -0.834415 0.000000 0.000000 0.000000 0.000000 0.000000 0.000000 1.634813 -1.516809 -0.428867 3.344521 -1.256179 -0.397102 -4.730200 -3.832357 3.224302 3.132646 2.915409 -2.344065 0.000000 0.000000 0.000000 0.000000 0.000000 0.000000 0.246546 -0.236524 -23.012965 -0.000000 0.000000 0.000000 -4.021921 -0.469961 3.629810 0.000000 0.000000 0.000000 0.246546 -0.236524 -23.012965 -0.000000 0.000000 0.000000 -1.747670 -2.018628 1.763652 0.000000 0.000000 0.000000
-29.926931 67.655806 341.429096 -0.415031 0.065615 23.297793 0.355241 -0.224411 -23.296859 -0.000000 0.000000 0.000000 -0.000000 0.000000 0.000000 0.000000 0.000000 0.000000 -0.000000 0.000000 0.000000 1.528201 3.533274 -0.301497 -0.861814 -23.378595 -2.870315 7.003134 33.291446 -0.482092 0.000000 0.000000 0.000000 0.000000 0.000000 0.000000 1.016441 -0.355280 -0.124863 3.170390 -1.702334 -0.546669 -0.986402 -7.094838 3.730144 3.104683 3.563285 -3.011093 0.000000 0.000000 0.000000 0.000000 0.000000 0.000000 1.224785 -0.344619 -23.147309 -0.846782 -0.231305 -0.146941 -4.416191 -0.663358 3.875993 0.000000 0.000000 0.000000 1.235358 -0.617739 -23.239514 -0.963883 0.014088 -0.050758 -1.483004 -1.136839 1.301841 0.000000 0.000000 0.000000
-30.071180 67.648347 341.593380 -0.468484 -0.127941 23.586389 0.480538 -0.070205 -23.586618 -0.000000 0.000000 0.000000 -0.000000 0.000000 0.000000 0.000000 0.000000 0.000000 -0.000000 0.000000 0.000000 1.561913 3.550182 -0.309145 -1.131976 -25.876679 -3.178904 6.069325 34.464665 0.025476 0.000000 0.000000 0.000000 0.000000 0.000000 0.000000 -0.035598 0.997590 0.260614 2.422472 -2.102637 -0.612597 1.922897 -2.417660 1.138052 2.780206 -0.815193 -0.601208 0.000000 0.000000 0.000000 0.000000 0.000000 0.000000 1.842914 0.030010 -23.320330 -1.211455 -0.631308 -0.272485 -4.967208 -0.929060 4.225370 0.000000 0.000000 0.000000 1.586368 -0.415634 -23.484942 -1.151869 -0.123912 -0.098233 -1.290854 -0.288335 0.895473 0.000000 0.000000 0.000000
-30.184934 67.653538 341.823649 -0.470098 -0.416806 23.816091 0.598377 0.191473 -23.818801 -0.000000 0.000000 0.000000 -0.000000 0.000000 0.000000 0.000000 0.000000 0.000000 -0.000000 0.000000 0.000000 1.518928 3.688612 -0.299384 -0.700151 -26.842029 -3.457370 3.978326 36.144566 1.024459 0.000000 0.000000 0.000000 0.000000 0.000000 0.000000 -2.293030 3.955510 1.192889 -1.017959 -1.081481 -0.638131 6.354594 -2.799431 -0.757772 1.827092 1.116790 0.145101 0.000000 0.000000 0.000000 0.000000 0.000000 0.000000 2.590176 0.608216 -23.408545 -1.662651 -1.173332 -0.441183 -5.167625 -1.038957 4.341914 0.000000 0.000000 0.000000 1.898110 -0.030979 -23.666510 -1.279732 -0.317948 -0.157661 -0.968520 0.654142 0.376974 0.000000 0.000000 0.000000
-30.244800 67.644412 342.087218 -0.402875 -0.747433 23.976795 -0.066291 0.143364 -23.991809 0.129709 -0.105248 -0.011232 -0.159460 -0.248735 -0.355117 0.000000 0.000000 0.000000 0.391711 0.748824 0.021194 1.412413 4.592895 -0.274241 1.006604 -29.373543 -4.234827 -0.049544 37.308848 3.533872 0.000000 0.000000 0.000000 0.000000 0.000000 0.000000 -5.111164 8.462746 2.692720 -7.181788 0.382513 -0.544910 8.689316 2.051425 -4.330241 4.441617 -1.940207 2.650496 0.000000 0.000000 0.000000 0.000000 0.000000 0.000000 3.327343 1.288548 -23.430962 -2.131662 -1.760411 -0.626157 -4.715268 -0.872337 4.011994 0.000000 0.000000 0.000000 2.064287 0.429486 -23.796622 -1.310272 -0.479559 -0.202857 -0.361462 1.429954 -0.265036 0.000000 0.000000 0.000000
-30.249841 67.741777 342.348395 -0.273478 -1.094502 24.355092 -0.154075 0.345388 -24.368276 0.190160 -0.226494 -0.008769 -0.669457 -0.664475 -0.639045 0.000000 0.000000 0.000000 0.365794 1.070061 0.017567 0.895918 4.925436 -0.150873 4.217225 -29.521513 -5.078745 -12.255599 29.952487 9.913243 0.000000 0.000000 0.000000 0.000000 0.000000 0.000000 -8.992725 12.848947 4.641049 -17.317899 2.409281 -0.226611 9.617062 15.643488 -8.429062 10.966333 -9.105090 7.950587 0.000000 0.000000 0.000000 0.000000 0.000000 0.000000 3.868087 2.118272 -23.696629 -2.406854 -2.399805 -0.799914 -4.152562 -0.756601 3.529100 0.000000 0.000000 0.000000 2.118323 0.882789 -24.163075 -1.294148 -0.578608 -0.228433 -0.315805 1.953648 -0.471117 0.000000 0.000000 0.000000
-30.197185 67.960315 342.577862 -0.088218 -1.425772 24.890564 -0.270720 0.518739 -24.898360 0.229030 -0.396736 -0.006111 -1.478806 -1.248404 -1.021539 0.000000 0.000000 0.000000 0.322796 1.466010 0.012697 0.377047 4.470763 -0.031572 5.488390 -29.392499 -5.489109 -10.322973 31.133490 9.489365 0.000000 0.000000 0.000000 0.000000 0.000000 0.000000 -14.406518 18.538062 7.811754 -30.251073 5.375751 -0.230592 13.448416 22.198590 -8.997137 7.920306 -5.294716 9.281238 0.000000 0.000000 0.000000 0.000000 0.000000 0.000000 4.156771 2.979440 -24.157022 -2.470634 -2.989998 -0.935114 -4.162020 -0.713759 3.573910 0.000000 0.000000 0.000000 2.002582 1.306436 -24.708337 -1.180176 -0.597917 -0.226510 -0.821461 2.448956 -0.317590 0.000000 0.000000 0.000000
-30.119415 68.250211 342.771205 0.053937 -1.740767 25.463180 -0.361621 0.637978 -25.464967 0.255423 -0.564122 -0.004187 -2.418051 -2.069137 -1.512733 0.000000 0.000000 0.000000 0.291192 1.884399 0.008569 0.162823 4.063146 0.014063 7.083625 -29.841676 -6.093754 -11.552731 30.504840 10.710990 0.000000 0.000000 0.000000 0.000000 0.000000 0.000000 -20.777897 24.146253 11.953820 -46.171666 9.852850 0.277548 19.434926 24.130560 -7.316751 -2.902429 3.950379 9.621742 0.000000 0.000000 0.000000 0.000000 0.000000 0.000000 4.248480 3.759633 -24.697950 -3.223494 -3.898370 -1.200417 -3.581175 -0.261251 4.049109 0.000000 0.000000 0.000000 1.969975 1.655333 -25.291386 -1.122266 -0.596708 -0.222581 -1.004925 2.327869 -0.161362 0.000000 0.000000 0.000000
-29.907489 68.580288 342.797231 0.309455 -1.917379 26.728925 -0.469110 0.669304 -26.719578 0.252771 -0.718369 0.001946 -3.655333 -2.847826 -1.986196 0.000000 0.000000 0.000000 -0.681115 2.275950 -0.049029 1.260522 3.659720 0.032324 8.116947 -31.716198 -6.718271 -3.910226 41.218410 7.397608 0.000000 0.000000 0.000000 0.000000 0.000000 0.000000 -27.581639 28.765602 16.581181 -61.613321 14.142819 1.042940 20.011729 25.110052 -3.822832 -10.818586 9.219435 11.401530 0.000000 0.000000 0.000000 0.000000 0.000000 0.000000 3.841206 4.352111 -25.985214 -2.881748 -4.096747 -1.190144 -3.862416 -0.197576 4.568757 0.000000 0.000000 0.000000 0.586136 1.851657 -26.733219 0.740185 0.787632 0.159663 -2.188302 0.873296 0.153035 0.000000 0.000000 0.000000
